# xmcd CD database file
#
# Track frame offsets:
#	150
#	5419
#	19686
#	37027
#	57593
#	73720
#	87119
#	110741
#	136446
#	164289
#	181673
#	198015
#	202325
#
# Disc length: 2971 seconds
#
# Revision: 6
# Processed by: cddbd v1.5.2PL0 Copyright (c) Steve Scherf et al.
# Submitted via: CDex 1.51
#
DISCID=b40b990d
DTITLE=Enigmatic Obsession - Secrets of Seduction
DYEAR=2006
DGENRE=New Age
TTITLE0=Opening My Eyes - 開啟雙眼
TTITLE1=In The Recent Past - 最近的過去
TTITLE2=The Delta Of The Red River - 紅河三角洲
TTITLE3=Northern Horizon - 北方天際
TTITLE4=The 5th Column - 第五欄位
TTITLE5=Silent Heroes - 沉默英雄
TTITLE6=Reachers Of Civilization - 文明搜尋者
TTITLE7=Punta Del Este - 東方
TTITLE8=Farewell To The Moon - 告別月球
TTITLE9=Slowly Walking In - 漫步
TTITLE10=Polar Lights - 極光
TTITLE11=Closing My Eyes - 閉上雙眼
TTITLE12=Lifesign - 生活標章
EXTD=YEAR: 2006
EXTT0=
EXTT1=
EXTT2=
EXTT3=
EXTT4=
EXTT5=
EXTT6=
EXTT7=
EXTT8=
EXTT9=
EXTT10=
EXTT11=
EXTT12=
PLAYORDER=
